<?xml version="1.0" encoding="UTF-8"?>
<svg xmlns="http://www.w3.org/2000/svg" width="2466" height="1067" viewBox="0 0 2466 1067" fill="none">
  <path d="M1367.42 357.582C1378.28 352.275 1386.69 345.12 1392.53 335.997C1398.44 326.874 1401.36 316.976 1401.36 306.183C1401.36 297.359 1399.33 289.428 1395.34 282.273C1391.34 275.118 1386.45 269.334 1380.66 264.922C1374.88 260.509 1369.27 257.409 1363.78 255.679C1368.68 253.533 1373.21 250.492 1377.32 246.557C1381.44 242.621 1384.78 237.851 1387.28 232.187C1389.79 226.522 1391.1 220.321 1391.1 213.702C1391.1 203.923 1388.48 194.92 1383.17 186.691C1377.86 178.463 1370.17 171.963 1360.09 167.193C1350.01 162.423 1338.2 159.979 1324.66 159.979H1237.1V365.572H1329.37C1343.86 365.572 1356.57 362.948 1367.42 357.641V357.582ZM1281.18 194.86H1321.74C1329.79 194.86 1336.11 197.066 1340.7 201.479C1345.29 205.891 1347.62 211.735 1347.62 218.949C1347.62 223.481 1346.61 227.536 1344.52 231.292C1342.43 235.049 1339.45 237.851 1335.57 239.819C1331.64 241.786 1327.04 242.74 1321.79 242.74H1281.24V194.86H1281.18ZM1281.18 330.571V273.269H1326.75C1332.41 273.269 1337.54 274.521 1342.19 276.966C1346.79 279.411 1350.36 282.869 1352.93 287.222C1355.49 291.634 1356.75 296.464 1356.75 301.771C1356.75 307.078 1355.49 312.206 1352.93 316.618C1350.36 321.03 1346.79 324.429 1342.19 326.874C1337.6 329.318 1332.47 330.571 1326.75 330.571H1281.18Z" fill="#231F20"></path>
  <path d="M1478.9 355.077C1495.96 364.558 1514.87 369.328 1535.62 369.328C1556.38 369.328 1575.29 364.558 1592.34 355.077C1609.4 345.596 1622.7 332.717 1632.31 316.439C1641.91 300.161 1646.68 282.273 1646.68 262.715C1646.68 243.158 1641.91 225.21 1632.31 208.991C1622.7 192.713 1609.4 179.894 1592.34 170.353C1575.29 160.873 1556.38 156.103 1535.62 156.103C1514.87 156.103 1495.96 160.873 1478.9 170.353C1461.84 179.834 1448.54 192.713 1438.94 208.991C1429.33 225.27 1424.56 243.158 1424.56 262.715C1424.56 282.273 1429.33 300.22 1438.94 316.439C1448.54 332.657 1461.84 345.537 1478.9 355.077ZM1477.41 228.907C1483.31 218.532 1491.42 210.423 1501.8 204.519C1512.18 198.676 1523.45 195.695 1535.56 195.695C1547.67 195.695 1558.94 198.616 1569.32 204.519C1579.7 210.423 1587.81 218.532 1593.72 228.907C1599.62 239.282 1602.54 250.551 1602.54 262.656C1602.54 274.76 1599.62 286.029 1593.72 296.404C1587.81 306.779 1579.7 314.889 1569.32 320.792C1558.94 326.635 1547.67 329.616 1535.56 329.616C1523.45 329.616 1512.18 326.695 1501.8 320.792C1491.42 314.889 1483.31 306.779 1477.41 296.404C1471.56 286.029 1468.58 274.76 1468.58 262.656C1468.58 250.551 1471.5 239.282 1477.41 228.907Z" fill="#231F20"></path>
  <path d="M1864.98 262.715C1864.98 244.112 1860.21 226.939 1850.61 211.198C1841 195.456 1827.88 182.935 1811.24 173.752C1794.6 164.57 1776.11 159.979 1755.71 159.979H1682.29V365.572H1755.71C1776.05 365.572 1794.6 360.98 1811.24 351.798C1827.88 342.615 1841 330.094 1850.61 314.352C1860.21 298.611 1864.98 281.438 1864.98 262.835V262.715ZM1812.37 295.749C1806.71 305.647 1798.9 313.398 1788.99 319.122C1779.09 324.787 1768 327.649 1755.65 327.649H1726.25V197.841H1755.65C1768 197.841 1779.09 200.704 1788.99 206.368C1798.9 212.033 1806.65 219.844 1812.37 229.742C1818.04 239.64 1820.9 250.671 1820.9 262.775C1820.9 274.879 1818.04 285.91 1812.37 295.808V295.749Z" fill="#231F20"></path>
  <path d="M1940.73 365.512H1984.81V294.138L2061.51 159.918H2013.02L1963.93 250.372H1962.8L1913.41 159.918H1864.09L1940.73 294.138V365.512Z" fill="#231F20"></path>
  <path d="M1391.94 594.002H1281.18V542.603H1365.51V508.497H1281.18V463.002H1389.01V425.675H1237.1V631.268H1391.94V594.002Z" fill="#231F20"></path>
  <path d="M1476.57 496.75H1477.71L1578.51 631.268H1617.28V425.675H1574.39V560.193H1573.2L1472.46 425.675H1433.69V631.268H1476.57V496.75Z" fill="#231F20"></path>
  <path d="M1709.25 542.603H1793.59V508.497H1709.25V463.002H1817.09V425.675H1665.17V631.268H1820.01V594.002H1709.25V542.603Z" fill="#231F20"></path>
  <path d="M1995.55 551.667C2006.4 545.764 2014.81 537.714 2020.83 527.458C2026.86 517.202 2029.78 505.694 2029.78 492.934C2029.78 480.174 2026.8 469.024 2020.83 458.709C2014.87 448.393 2006.46 440.343 1995.55 434.5C1984.69 428.657 1972.28 425.675 1958.39 425.675H1867.61V631.268H1911.68V560.491H1951.11L1988.69 631.268H2038.01L1993.52 552.621C1994.17 552.263 1994.89 552.024 1995.6 551.667H1995.55ZM1911.68 462.942H1955.17C1961.25 462.942 1966.56 464.194 1971.15 466.758C1975.74 469.322 1979.32 472.9 1981.89 477.491C1984.45 482.082 1985.7 487.21 1985.7 492.934C1985.7 498.658 1984.45 504.025 1981.89 508.497C1979.32 513.028 1975.74 516.606 1971.15 519.23C1966.56 521.853 1961.19 523.165 1955.17 523.165H1911.68V462.942Z" fill="#231F20"></path>
  <path d="M2176.09 551.666H2217.78V578.975C2215.22 581.718 2211.64 584.461 2207.05 587.204C2202.45 589.947 2196.97 592.213 2190.59 593.942C2184.2 595.731 2177.52 596.565 2170.48 596.565C2157.96 596.565 2146.51 593.584 2136.13 587.621C2125.75 581.659 2117.64 573.49 2111.73 563.115C2105.89 552.74 2102.91 541.351 2102.91 529.068C2102.91 516.785 2105.83 505.098 2111.73 494.723C2117.64 484.348 2125.81 476.238 2136.25 470.335C2146.75 464.492 2158.26 461.511 2170.78 461.511C2183.31 461.511 2194.4 463.836 2203.41 468.547C2212.42 473.257 2220.47 479.399 2227.51 487.031L2256.31 461.511C2247.31 450.539 2235.44 441.178 2220.77 433.486C2206.09 425.735 2189.15 421.859 2169.95 421.859C2149.19 421.859 2130.28 426.629 2113.23 436.11C2096.17 445.59 2082.87 458.47 2073.26 474.748C2063.66 491.026 2058.89 508.914 2058.89 528.472C2058.89 548.029 2063.66 565.977 2073.26 582.195C2082.87 598.414 2096.17 611.293 2113.23 620.833C2130.28 630.314 2149.19 635.084 2169.95 635.084C2183.49 635.084 2196.13 633.057 2208 628.943C2219.87 624.828 2230.19 619.76 2239.02 613.678C2247.84 607.596 2254.7 601.335 2259.59 594.896V521.197H2176.15V551.726L2176.09 551.666Z" fill="#231F20"></path>
  <path d="M2417 425.675L2367.91 516.129H2366.72L2317.39 425.675H2268L2344.71 559.895V631.268H2388.79V559.895L2465.49 425.675H2417Z" fill="#231F20"></path>
  <path d="M1369.93 854.034C1360.74 858.864 1349.65 861.249 1336.71 861.249C1323.76 861.249 1312.73 858.327 1302.35 852.424C1291.97 846.521 1283.8 838.471 1277.84 828.216C1271.87 817.96 1268.89 806.631 1268.89 794.288C1268.89 781.945 1271.87 770.616 1277.84 760.36C1283.8 750.105 1291.97 741.995 1302.35 736.152C1312.73 730.308 1324.18 727.327 1336.71 727.327C1349.23 727.327 1360.62 729.653 1369.63 734.363C1378.64 739.074 1386.69 745.215 1393.73 752.847L1422.53 727.327C1413.35 716.356 1401.36 706.994 1386.69 699.302C1372.02 691.551 1355.14 687.675 1336.17 687.675C1315.23 687.675 1296.27 692.445 1279.33 701.926C1262.39 711.407 1249.09 724.286 1239.36 740.564C1229.7 756.842 1224.81 774.73 1224.81 794.288C1224.81 813.846 1229.58 831.793 1239.19 848.012C1248.79 864.29 1262.09 877.169 1279.15 886.65C1296.21 896.13 1315.11 900.901 1335.87 900.901C1355.08 900.901 1372.13 896.965 1386.99 889.154C1401.84 881.343 1414.13 871.624 1423.73 860.056L1395.22 834.774C1387.58 842.824 1379.17 849.204 1369.93 853.974V854.034Z" fill="#231F20"></path>
  <path d="M1502.4 691.491H1458.32V897.084H1597.59V856.836H1502.4V691.491Z" fill="#231F20"></path>
  <path d="M1753.63 813.368C1753.63 822.014 1751.54 830.004 1747.3 837.457C1743.07 844.911 1737.4 850.754 1730.24 854.928C1723.09 859.162 1715.39 861.249 1707.16 861.249C1698.33 861.249 1690.4 859.221 1683.36 855.107C1676.33 850.993 1670.72 845.269 1666.6 837.935C1662.49 830.6 1660.46 822.432 1660.46 813.428V691.551H1616.38V813.428C1616.38 830.064 1620.26 845.03 1628.01 858.387C1635.77 871.683 1646.5 882.118 1660.16 889.631C1673.88 897.144 1689.57 900.96 1707.16 900.96C1724.76 900.96 1740.21 897.204 1754.04 889.631C1767.82 882.118 1778.56 871.683 1786.19 858.387C1793.83 845.09 1797.64 830.123 1797.64 813.428V691.551H1753.57V813.428L1753.63 813.368Z" fill="#231F20"></path>
  <path d="M1986.12 796.494C1980.34 792.082 1974.73 788.981 1969.24 787.252C1974.13 785.105 1978.67 782.064 1982.78 778.129C1986.9 774.193 1990.24 769.423 1992.74 763.759C1995.25 758.094 1996.56 751.893 1996.56 745.275C1996.56 735.496 1993.93 726.492 1988.63 718.264C1983.32 710.035 1975.62 703.536 1965.54 698.766C1955.46 693.996 1943.65 691.551 1930.11 691.551H1842.56V897.144H1934.83C1949.32 897.144 1962.02 894.52 1972.88 889.214C1983.74 883.907 1992.15 876.751 1997.99 867.629C2003.84 858.506 2006.82 848.608 2006.82 837.815C2006.82 828.99 2004.79 821.06 2000.79 813.905C1996.8 806.75 1991.91 800.966 1986.12 796.554V796.494ZM1886.69 726.432H1927.25C1935.3 726.432 1941.63 728.639 1946.22 733.051C1950.81 737.463 1953.14 743.307 1953.14 750.522C1953.14 755.053 1952.12 759.108 1950.04 762.864C1947.95 766.621 1944.97 769.423 1941.09 771.391C1937.15 773.359 1932.56 774.313 1927.31 774.313H1886.75V726.432H1886.69ZM1958.39 848.19C1955.82 852.603 1952.24 856.001 1947.65 858.446C1943.06 860.891 1937.93 862.143 1932.2 862.143H1886.63V804.842H1932.2C1937.87 804.842 1943 806.094 1947.65 808.539C1952.24 810.983 1955.82 814.442 1958.39 818.794C1960.95 823.207 1962.2 828.036 1962.2 833.343C1962.2 838.65 1960.95 843.778 1958.39 848.19Z" fill="#231F20"></path>
  <path d="M915.85 533.123C915.85 322.343 744.311 150.916 533.525 150.916C322.739 150.916 151.2 322.402 151.2 533.123C151.2 743.844 322.739 915.331 533.525 915.331C673.989 915.331 796.918 839.187 863.362 726.016H787.136C728.803 802.457 636.83 851.888 533.525 851.888C357.691 851.888 214.663 708.903 214.663 533.123C214.663 357.343 357.691 214.358 533.525 214.358C700.233 214.358 837.417 342.973 851.195 506.172H440.479V570.33H882.926H914.061C915.254 558.107 915.91 545.764 915.91 533.242L915.85 533.123Z" fill="#0076BB"></path>
  <path d="M63.4624 21.0482H0L0.178928 533.123C0.178928 827.083 239.415 1066.31 533.525 1066.31C827.635 1066.31 1066.81 827.143 1066.81 533.123C1066.81 239.103 827.575 0 533.525 0C371.947 0 227.069 72.2676 129.191 186.095V294.258C211.144 156.222 361.628 63.4429 533.525 63.4429C792.623 63.4429 1003.41 274.164 1003.41 533.182C1003.41 792.201 792.623 1002.92 533.525 1002.92C274.427 1002.92 63.6413 792.201 63.6413 533.182L63.4624 21.1079V21.0482Z" fill="#005289"></path>
  <path d="M655.917 645.221C625.557 678.374 581.897 699.184 533.525 699.184C441.91 699.184 367.414 624.71 367.414 533.123C367.414 441.536 441.91 367.063 533.525 367.063C586.907 367.063 634.445 392.404 664.804 431.579H739.301C701.784 355.853 623.649 303.62 533.525 303.62C406.958 303.62 303.951 406.535 303.951 533.123C303.951 659.711 406.899 762.626 533.525 762.626C619.414 762.626 694.328 715.223 733.694 645.221H655.917Z" fill="#005289"></path>
</svg>
